<?xml version="1.0" standalone="no"?>
<!DOCTYPE svg PUBLIC "-//W3C//DTD SVG 20010904//EN"
 "http://www.w3.org/TR/2001/REC-SVG-20010904/DTD/svg10.dtd">
<svg version="1.0" xmlns="http://www.w3.org/2000/svg"
 width="225.000000pt" height="225.000000pt" viewBox="0 0 225.000000 225.000000"
 preserveAspectRatio="xMidYMid meet">
<metadata>
Created by potrace 1.14, written by Peter Selinger 2001-2017
</metadata>
<g transform="translate(0.000000,225.000000) scale(0.100000,-0.100000)"
fill="#000000" stroke="none">
<path d="M1036 2169 c-51 -7 -166 -51 -166 -62 0 -3 27 -3 59 0 68 4 92 -11
90 -55 -1 -21 -2 -23 -6 -7 -13 51 -36 49 -151 -9 -80 -40 -122 -82 -122 -120
0 -18 2 -35 5 -38 3 -3 28 6 55 21 38 20 52 23 61 14 16 -16 1 -34 -58 -68
-59 -35 -49 -44 13 -11 26 14 51 23 56 20 20 -13 4 -36 -42 -62 -27 -15 -50
-33 -50 -40 0 -9 14 -4 43 13 50 29 67 31 67 10 0 -8 -22 -29 -50 -46 -65 -40
-65 -57 1 -23 34 17 55 22 61 16 15 -15 0 -32 -48 -52 -25 -11 -44 -26 -44
-35 0 -13 6 -12 40 5 49 25 70 25 70 1 0 -14 -13 -24 -45 -37 -25 -9 -45 -23
-45 -31 0 -10 9 -9 41 7 43 22 72 21 63 -3 -2 -7 -25 -23 -50 -35 -25 -12 -42
-27 -39 -32 4 -6 17 -4 35 5 34 17 56 19 65 5 3 -5 -14 -20 -39 -32 -56 -27
-65 -55 -11 -32 46 19 65 18 65 -4 0 -11 -16 -26 -45 -40 -50 -24 -59 -53 -27
-91 17 -20 18 -20 92 -5 112 23 158 46 162 81 l4 28 9 -29 c11 -40 -15 -60
-127 -94 -48 -14 -88 -30 -88 -34 0 -4 18 -12 39 -18 42 -11 151 -3 151 11 0
5 -5 9 -11 9 -24 0 5 20 51 35 62 20 83 54 79 126 -2 27 1 52 5 56 13 13 36
-29 36 -65 0 -39 -12 -66 -49 -106 -22 -24 -23 -27 -5 -18 12 6 36 28 54 48
30 35 32 40 25 90 -4 32 -3 54 3 54 20 0 35 -33 35 -76 0 -35 -7 -53 -33 -87
l-33 -42 31 29 c48 44 63 85 51 130 -12 44 -4 60 17 32 28 -38 12 -113 -35
-171 -16 -20 -16 -20 8 0 36 31 51 69 51 130 0 61 14 73 29 23 l9 -33 1 32 c1
40 -31 73 -71 73 -18 0 -28 5 -28 15 0 11 11 15 40 15 22 0 40 4 40 9 0 10
-34 21 -67 21 -16 0 -23 6 -23 20 0 16 7 20 36 20 21 0 33 4 29 10 -3 6 -21
10 -40 10 -21 0 -35 6 -39 16 -9 24 -9 24 30 24 21 0 33 4 29 10 -3 6 -19 10
-35 10 -16 0 -31 4 -34 9 -6 9 20 35 44 44 11 4 11 6 -3 6 -11 1 -27 11 -37
24 -18 22 -18 22 8 28 28 6 25 9 -23 24 -25 7 -19 45 8 46 20 1 20 2 2 6 -21
5 -45 30 -45 46 0 5 15 7 34 5 19 -2 32 0 30 4 -3 4 -15 8 -28 8 -25 0 -46 17
-46 38 0 11 10 13 41 9 28 -4 38 -2 31 5 -5 5 -50 12 -99 15 -149 7 -152 8
-174 59 -14 31 -17 49 -10 61 8 14 14 7 35 -41 31 -69 44 -71 19 -3 -9 25 -14
49 -11 53 13 12 30 -9 55 -65 14 -31 28 -50 30 -43 3 8 -3 31 -12 53 -18 39
-16 57 5 44 5 -3 22 -29 35 -56 14 -27 30 -49 35 -49 14 0 13 3 -12 55 -38 79
-1 71 47 -11 35 -60 41 -56 10 7 -18 35 -36 54 -58 64 -46 19 -123 24 -191 14z
m-96 -49 c-8 -5 -22 -9 -30 -9 -10 0 -8 3 5 9 27 12 43 12 25 0z m298 -135 c2
-18 -2 -20 -43 -17 -54 5 -155 -6 -155 -16 0 -4 47 -6 105 -4 101 4 105 4 105
-17 0 -19 -6 -21 -57 -21 -70 0 -133 -10 -133 -20 0 -5 45 -6 100 -3 67 4 100
2 100 -5 0 -6 3 -17 6 -26 5 -14 -4 -16 -67 -16 -41 0 -84 -3 -96 -6 -48 -13
-19 -19 78 -16 96 3 100 3 90 -16 -8 -16 -25 -20 -92 -25 -45 -3 -86 -10 -92
-16 -8 -8 12 -10 76 -5 76 6 90 5 107 -11 11 -10 20 -22 20 -27 0 -4 -33 -8
-72 -8 -85 0 -118 -7 -118 -25 0 -10 9 -11 38 -4 20 5 65 9 98 9 52 0 62 -3
67 -19 4 -16 -4 -19 -86 -24 -49 -3 -95 -11 -100 -16 -18 -18 -2 -22 44 -12
71 17 146 14 153 -5 4 -9 4 -19 1 -22 -3 -3 -44 -9 -92 -13 -49 -4 -92 -8 -96
-8 -5 -1 -6 -5 -3 -10 4 -5 51 -7 107 -4 95 6 101 5 97 -13 -3 -16 -15 -20
-73 -25 -39 -4 -104 -18 -145 -32 -53 -18 -79 -22 -87 -15 -18 15 -9 24 45 49
52 23 43 37 -13 19 -34 -11 -55 -7 -55 10 0 5 23 19 50 31 28 12 50 26 50 31
0 11 -12 10 -58 -6 -35 -13 -42 -13 -53 0 -9 12 -3 18 39 37 60 26 75 57 16
32 -46 -19 -64 -19 -64 0 0 8 21 26 48 39 55 28 39 46 -20 22 -19 -8 -38 -12
-42 -9 -16 16 -2 32 45 51 61 26 58 48 -3 26 -79 -28 -94 4 -18 37 28 12 50
28 50 35 0 12 -7 11 -37 -2 -21 -9 -44 -18 -50 -21 -8 -3 -13 3 -13 16 0 16
12 27 46 41 51 22 53 44 1 28 -17 -5 -40 -12 -49 -15 -12 -3 -18 0 -18 10 0
19 8 25 75 54 42 19 65 22 145 20 87 -2 95 -4 98 -22z"/>
<path d="M1085 1238 c-49 -6 -91 -11 -92 -12 -11 -10 77 -218 97 -231 5 -3 10
-23 10 -44 l0 -38 -102 -7 c-276 -18 -527 -107 -654 -231 -50 -49 -65 -72 -78
-117 -59 -202 171 -381 584 -454 131 -24 420 -24 550 -1 152 28 238 54 350
109 269 130 322 317 138 483 -119 107 -286 165 -605 211 -32 5 -33 6 -33 53 0
31 5 53 15 61 17 14 21 35 5 25 -5 -3 -10 -2 -10 4 0 5 5 13 10 16 16 10 11
26 -7 23 -14 -2 -19 5 -21 30 -2 17 -7 32 -12 32 -25 0 -40 -15 -40 -40 0 -15
-7 -33 -15 -40 -13 -11 -15 -7 -15 22 0 19 -6 56 -14 82 -16 53 -19 50 59 65
49 9 49 9 10 8 -22 0 -80 -4 -130 -9z m23 -110 c19 -25 22 -54 8 -74 -12 -15
-17 -17 -27 -6 -11 10 -10 12 4 12 9 0 17 6 17 14 0 26 -12 46 -27 46 -8 0
-11 5 -8 10 8 14 20 13 33 -2z m112 -277 c0 -143 -4 -232 -10 -236 -7 -4 -10
75 -10 229 0 151 4 236 10 236 6 0 10 -83 10 -229z m-40 -51 c0 -183 -1 -190
-20 -190 -19 0 -20 7 -20 184 0 182 2 192 33 195 4 1 7 -84 7 -189z m-60 46
c0 -8 -18 -37 -40 -65 -33 -42 -40 -58 -41 -98 l-1 -48 -9 40 c-13 54 -6 76
44 134 48 56 47 56 47 37z m-620 -94 c-14 -9 -48 -38 -76 -65 -38 -35 -51 -53
-47 -68 4 -15 8 -17 19 -8 11 9 14 8 14 -6 0 -15 2 -16 16 -4 20 16 74 21 74
7 0 -6 7 -5 15 2 13 11 14 10 8 -6 -6 -17 -5 -17 10 -5 14 11 17 11 17 0 1
-10 4 -8 11 4 17 28 28 19 23 -19 -3 -22 -1 -33 6 -29 5 3 10 -2 10 -12 1 -17
2 -16 16 2 11 14 18 16 21 7 3 -6 9 -10 14 -6 5 3 9 -3 9 -13 0 -12 5 -9 16
12 22 43 38 58 86 84 l43 23 -38 -32 c-97 -83 -89 -178 22 -249 28 -18 51 -35
51 -38 0 -13 -106 56 -134 87 -33 36 -56 42 -56 13 0 -12 -3 -13 -14 -4 -11 9
-15 8 -20 -5 -5 -13 -9 -14 -22 -4 -11 10 -18 10 -26 2 -9 -9 -16 -8 -30 4
-16 15 -18 15 -24 0 -6 -16 -8 -16 -25 0 -12 11 -19 13 -19 5 0 -6 -6 -11 -12
-10 -25 4 -69 -14 -78 -31 -8 -15 -1 -26 39 -62 26 -23 77 -60 112 -80 77 -46
62 -50 -24 -7 -128 65 -220 162 -233 245 -5 36 -2 54 20 99 29 57 67 93 162
150 60 36 88 47 44 17z m1402 -101 c61 -55 78 -87 78 -149 0 -38 -7 -59 -31
-96 -41 -61 -164 -149 -239 -171 -14 -3 2 10 35 30 73 45 101 70 119 107 15
30 9 36 -13 16 -11 -11 -12 -8 -7 15 8 32 -1 30 -42 -6 l-22 -21 7 34 6 35
-28 -19 c-22 -14 -29 -15 -36 -5 -6 11 -12 10 -27 -4 -10 -9 -22 -14 -25 -11
-4 4 -14 1 -24 -7 -11 -9 -14 -10 -9 -1 9 15 -6 16 -22 0 -16 -16 -16 5 -1 34
12 22 12 22 -57 -25 -22 -15 -50 -29 -61 -32 -12 -2 -36 -11 -55 -19 -32 -16
-32 -16 -8 1 14 10 44 36 68 59 36 36 42 47 42 84 0 38 -6 48 -49 91 -26 27
-46 49 -44 49 16 0 98 -68 114 -93 13 -23 19 -27 19 -14 0 10 5 15 10 12 6 -3
10 -1 10 5 0 7 8 9 22 5 17 -6 20 -4 15 9 -7 19 4 21 21 4 9 -9 12 -8 12 5 0
20 11 22 29 5 12 -11 13 -10 7 6 -4 13 -2 17 8 13 8 -3 16 -1 18 5 3 8 17 7
46 -5 41 -17 42 -17 42 5 0 21 0 21 21 2 l21 -19 -6 35 c-7 34 -41 73 -96 113
-14 10 -1 5 29 -10 30 -15 76 -48 103 -72z m-885 -18 c-3 -10 -5 -2 -5 17 0
19 2 27 5 18 2 -10 2 -26 0 -35z m83 -83 c0 -27 -4 -50 -10 -50 -5 0 -10 23
-10 50 0 28 5 50 10 50 6 0 10 -22 10 -50z m120 0 c0 -27 -4 -50 -10 -50 -5 0
-10 23 -10 50 0 28 5 50 10 50 6 0 10 -22 10 -50z"/>
</g>
</svg>
